HIERARCHY
ROOT SpineBase
{
  OFFSET 0.000000 0.000000 0.000000
  CHANNELS 6 Xposition Yposition Zposition Zrotation Xrotation Yrotation
  JOINT SpineMid
  {
    OFFSET 0.000000 29.187012 0.000000
    CHANNELS 3 Zrotation Xrotation Yrotation
    JOINT SpineShoulder
    {
      OFFSET -0.154215 21.777459 -0.623225
      CHANNELS 3 Zrotation Xrotation Yrotation
      JOINT Neck
      {
        OFFSET -0.103377 7.226574 -0.488838
        CHANNELS 3 Zrotation Xrotation Yrotation
        JOINT Head
        {
          OFFSET 7.176556 11.504779 -0.945973
          CHANNELS 3 Zrotation Xrotation Yrotation
          End Site
          {
            OFFSET 0 0 0
          }
        }
      }
      JOINT ShoulderLeft
      {
        OFFSET -14.581873 -2.024785 -7.417398
        CHANNELS 3 Zrotation Xrotation Yrotation
        JOINT ElbowLeft
        {
          OFFSET -7.803866 -23.153692 -3.261441
          CHANNELS 3 Zrotation Xrotation Yrotation
          JOINT WristLeft
          {
            OFFSET 0.936837 -20.542397 -5.432577
            CHANNELS 3 Zrotation Xrotation Yrotation
            JOINT HandLeft
            {
              OFFSET 1.522324 -6.662372 -0.268432
              CHANNELS 3 Zrotation Xrotation Yrotation
              JOINT HandTipLeft
              {
                OFFSET 0.502334 -6.073807 0.272700
                CHANNELS 3 Zrotation Xrotation Yrotation
                End Site
                {
                  OFFSET 0 0 0
                }
              }
              JOINT ThumbLeft
              {
                OFFSET 2.946056 0.686359 0.322982
                CHANNELS 3 Zrotation Xrotation Yrotation
                End Site
                {
                  OFFSET 0 0 0
                }
              }
            }
          }
        }
      }
      JOINT ShoulderRight
      {
        OFFSET 15.712949 -6.716760 6.802486
        CHANNELS 3 Zrotation Xrotation Yrotation
        JOINT ElbowRight
        {
          OFFSET 0.087995 -24.778255 2.983440
          CHANNELS 3 Zrotation Xrotation Yrotation
          JOINT WristRight
          {
            OFFSET -1.357724 -20.309515 -8.380611
            CHANNELS 3 Zrotation Xrotation Yrotation
            JOINT HandRight
            {
              OFFSET -1.579021 -4.281214 -1.206572
              CHANNELS 3 Zrotation Xrotation Yrotation
              JOINT HandTipRight
              {
                OFFSET -0.594752 -5.187057 -1.340701
                CHANNELS 3 Zrotation Xrotation Yrotation
                End Site
                {
                  OFFSET 0 0 0
                }
              }
              JOINT ThumbRight
              {
                OFFSET 3.227497 1.954613 -0.874609
                CHANNELS 3 Zrotation Xrotation Yrotation
                End Site
                {
                  OFFSET 0 0 0
                }
              }
            }
          }
        }
      }
    }
  }
  JOINT HipLeft
  {
    OFFSET -6.119549 1.581052 -5.538613
    CHANNELS 3 Zrotation Xrotation Yrotation
    JOINT KneeLeft
    {
      OFFSET -8.117935 -28.274275 1.003220
      CHANNELS 3 Zrotation Xrotation Yrotation
      JOINT AnkleLeft
      {
        OFFSET -4.530237 -37.970240 11.509227
        CHANNELS 3 Zrotation Xrotation Yrotation
        JOINT FootLeft
        {
          OFFSET 2.268494 -6.725531 -4.569882
          CHANNELS 3 Zrotation Xrotation Yrotation
          End Site
          {
            OFFSET 0 0 0
          }
        }
      }
    }
  }
  JOINT HipRight
  {
    OFFSET 4.710277 0.662801 -0.701400
    CHANNELS 3 Zrotation Xrotation Yrotation
    JOINT KneeRight
    {
      OFFSET -3.912755 -28.506177 1.454369
      CHANNELS 3 Zrotation Xrotation Yrotation
      JOINT AnkleRight
      {
        OFFSET -10.847769 -37.835308 6.934285
        CHANNELS 3 Zrotation Xrotation Yrotation
        JOINT FootRight
        {
          OFFSET 3.841279 -2.688841 -12.704225
          CHANNELS 3 Zrotation Xrotation Yrotation
          End Site
          {
            OFFSET 0 0 0
          }
        }
      }
    }
  }
}
MOTION
Frames: 10
Frame Time: 0.033333
68.997947 71.529520 319.086769 -0.000000 0.000000 -24.068244 0.000000 0.000000 24.068244 -0.000000 0.000000 0.000000 -0.000000 0.000000 0.000000 0.000000 0.000000 0.000000 -0.000000 0.000000 0.000000 -0.000000 0.000000 0.000000 -0.000000 0.000000 0.000000 -0.000000 0.000000 0.000000 0.000000 0.000000 0.000000 0.000000 0.000000 0.000000 -0.000000 0.000000 0.000000 -0.000000 0.000000 0.000000 -0.000000 0.000000 0.000000 -0.000000 0.000000 0.000000 0.000000 0.000000 0.000000 0.000000 0.000000 0.000000 0.000000 0.000000 24.068244 -0.000000 0.000000 0.000000 -0.000000 0.000000 0.000000 0.000000 0.000000 0.000000 0.000000 0.000000 24.068244 -0.000000 0.000000 0.000000 -0.000000 0.000000 0.000000 0.000000 0.000000 0.000000
68.987337 71.553078 319.147430 -0.011847 0.011625 -23.945511 0.015545 -0.005816 23.945513 -0.000000 0.000000 0.000000 -0.000000 0.000000 0.000000 0.000000 0.000000 0.000000 -0.000000 0.000000 0.000000 1.318355 0.370337 -0.335571 1.139685 2.708814 0.876266 1.283834 -2.876427 -0.283471 0.000000 0.000000 0.000000 0.000000 0.000000 0.000000 -0.000000 0.000000 0.000000 -0.000000 0.000000 0.000000 -0.000000 0.000000 0.000000 0.178046 1.107404 -0.174316 0.000000 0.000000 0.000000 0.000000 0.000000 0.000000 0.015545 -0.005816 23.945513 -0.000000 0.000000 0.000000 1.320754 6.873073 1.286698 0.000000 0.000000 0.000000 0.015545 -0.005816 23.945513 -0.000000 0.000000 0.000000 -0.715799 -1.978448 0.597025 0.000000 0.000000 0.000000
68.969015 71.575021 319.210611 -0.028217 0.023007 -23.860809 0.035112 -0.009626 23.860818 -0.000000 0.000000 0.000000 -0.000000 0.000000 0.000000 0.000000 0.000000 0.000000 -0.000000 0.000000 0.000000 2.528365 0.743023 -0.649488 1.741487 5.027430 1.588305 2.605273 -5.449794 -0.326002 0.000000 0.000000 0.000000 0.000000 0.000000 0.000000 -0.000000 0.000000 0.000000 -0.000000 0.000000 0.000000 1.009903 0.434897 -0.449841 -0.527590 1.546524 0.083494 0.000000 0.000000 0.000000 0.000000 0.000000 0.000000 0.035112 -0.009626 23.860818 -0.000000 0.000000 0.000000 2.242210 11.409894 1.966818 0.000000 0.000000 0.000000 0.035112 -0.009626 23.860818 -0.000000 0.000000 0.000000 -1.336377 -3.744936 1.108437 0.000000 0.000000 0.000000
68.942981 71.595351 319.276313 -0.049118 0.034149 -23.814145 0.058724 -0.011409 23.814166 -0.000000 0.000000 0.000000 -0.000000 0.000000 0.000000 0.000000 0.000000 0.000000 -0.000000 0.000000 0.000000 3.621952 1.116818 -0.938753 1.900243 7.014407 2.194069 3.973177 -7.774753 -0.200395 0.000000 0.000000 0.000000 0.000000 0.000000 0.000000 -0.000000 0.000000 0.000000 -0.000000 0.000000 0.000000 1.281326 0.465432 -0.539603 -0.353158 2.152365 -0.027327 0.000000 0.000000 0.000000 0.000000 0.000000 0.000000 0.058724 -0.011409 23.814166 0.782646 0.498679 0.174702 2.167319 13.430553 2.026893 0.000000 0.000000 0.000000 0.058724 -0.011409 23.814166 -0.000000 0.000000 0.000000 -1.846335 -5.232166 1.524114 0.000000 0.000000 0.000000
68.909237 71.614067 319.344535 -0.074556 0.045052 -23.805502 0.086397 -0.011126 23.805540 -0.000000 0.000000 0.000000 -0.048948 -0.791160 0.488751 0.000000 0.000000 0.000000 -0.096997 0.889042 -0.284845 4.685912 0.627774 -0.844203 1.679729 8.725817 2.733892 5.404811 -9.906273 0.042755 0.000000 0.000000 0.000000 0.000000 0.000000 0.000000 -0.000000 0.000000 0.000000 0.243373 -0.816118 -0.044270 1.187148 1.208001 -0.527197 0.080338 2.614448 -0.222244 0.000000 0.000000 0.000000 0.000000 0.000000 0.000000 0.086397 -0.011126 23.805540 0.864059 0.598905 0.186402 2.582250 14.079482 1.863721 0.000000 0.000000 0.000000 0.086397 -0.011126 23.805540 -0.000000 0.000000 0.000000 -2.232951 -6.380991 1.836452 0.000000 0.000000 0.000000
68.867780 71.631169 319.415278 -0.104542 0.055718 -23.834839 0.118142 -0.008721 23.834899 -0.000000 0.000000 0.000000 -0.038704 -0.878417 0.544017 0.000000 0.000000 0.000000 -0.050720 1.305112 -0.431421 5.482476 0.605247 -0.879270 1.114666 10.211603 3.237334 6.927521 -11.896098 0.370195 0.000000 0.000000 0.000000 0.000000 0.000000 0.000000 -0.000000 0.000000 0.000000 0.291778 -0.981040 -0.052511 1.178200 1.196247 -0.466121 0.757918 2.923708 -0.496697 0.000000 0.000000 0.000000 0.000000 0.000000 0.000000 0.118142 -0.008721 23.834899 0.854786 0.665585 0.175188 2.921838 13.079446 1.377846 0.000000 0.000000 0.000000 0.118142 -0.008721 23.834899 -0.000000 0.000000 0.000000 -2.486639 -7.144661 2.040251 0.000000 0.000000 0.000000
68.811523 71.646233 319.500261 -0.137112 0.059375 -23.944405 0.149410 0.001382 23.944474 -0.000000 0.000000 0.000000 -0.062231 -0.899727 0.555095 0.000000 0.000000 0.000000 0.037668 1.903864 -0.646233 6.191318 0.512229 -0.811137 -0.003971 11.370979 3.759410 9.469499 -14.188004 1.011853 0.000000 0.000000 0.000000 0.000000 0.000000 0.000000 -0.000000 0.000000 0.000000 0.444926 -1.172780 -0.101091 1.159812 1.066688 -0.336392 2.088165 3.656803 -1.065534 0.000000 0.000000 0.000000 0.000000 0.000000 0.000000 0.149410 0.001382 23.944474 0.770147 0.677354 0.148460 3.262891 1.626314 -2.099911 0.000000 0.000000 0.000000 0.149410 0.001382 23.944474 -0.000000 0.000000 0.000000 -2.838962 -8.239194 2.275705 0.000000 0.000000 0.000000
68.743896 71.659584 319.576587 -0.183627 0.077981 -24.100539 0.199463 0.003799 24.100657 -0.000000 0.000000 0.000000 -0.061188 -0.919062 0.567224 0.000000 0.000000 0.000000 0.172970 2.553204 -0.886560 6.665673 0.287628 -0.658359 -1.314713 12.357840 4.240057 11.514363 -16.381999 1.574002 0.000000 0.000000 0.000000 0.000000 0.000000 0.000000 -0.000000 0.000000 0.000000 0.500877 -1.327113 -0.112732 0.698109 1.071523 -0.145614 3.382952 1.871397 -1.209774 0.000000 0.000000 0.000000 0.000000 0.000000 0.000000 0.199463 0.003799 24.100657 0.558817 0.718966 0.080297 2.954094 0.826333 -1.918953 0.000000 0.000000 0.000000 0.199463 0.003799 24.100657 -0.960331 -0.174715 -0.127040 -1.976228 -8.436308 2.487749 0.000000 0.000000 0.000000
68.674523 71.673574 319.652331 -0.233901 0.090935 -24.245327 0.250612 0.013137 24.245484 -0.000000 0.000000 0.000000 0.015333 -0.947401 0.592021 0.000000 0.000000 0.000000 0.353270 3.198927 -1.134772 6.891069 -0.002045 -0.444373 -2.944903 13.595872 4.786598 13.577597 -18.449577 2.108798 0.000000 0.000000 0.000000 0.000000 0.000000 0.000000 -0.000000 0.000000 0.000000 0.471740 -1.458010 -0.091691 0.247447 0.431747 0.268483 4.356870 0.474143 -1.495782 0.000000 0.000000 0.000000 0.000000 0.000000 0.000000 0.250612 0.013137 24.245484 -0.000000 0.000000 0.000000 0.663944 -9.507162 -3.816911 0.000000 0.000000 0.000000 0.248494 0.828912 24.160213 -1.252235 -0.989125 -0.029647 -1.901284 -8.002489 2.366066 0.000000 0.000000 0.000000
68.618704 71.687276 319.727176 -0.275115 0.107598 -24.389042 0.294994 0.015608 24.389260 -0.000000 0.000000 0.000000 0.109948 -0.915820 0.581171 0.000000 0.000000 0.000000 0.488962 3.800503 -1.362043 6.987245 -0.411674 -0.207594 -4.779672 14.989491 5.378738 14.587798 -18.784331 2.111157 0.000000 0.000000 0.000000 0.000000 0.000000 0.000000 -0.000000 0.000000 0.000000 0.356782 -1.517575 -0.041275 -0.299004 -0.490135 0.778285 4.746334 2.375450 -2.198459 0.000000 0.000000 0.000000 0.000000 0.000000 0.000000 0.294994 0.015608 24.389260 -0.000000 0.000000 0.000000 1.264910 -5.897495 -2.874647 0.000000 0.000000 0.000000 0.230622 0.898530 24.291286 -1.120836 -1.190741 0.035024 -1.660654 -6.807429 2.046401 0.000000 0.000000 0.000000
